<?xml version="1.0" encoding="UTF-8"?>
<svg id="_レイヤー_1" data-name="レイヤー 1" xmlns="http://www.w3.org/2000/svg" viewBox="0 0 377.2 527">
  <defs>
    <style>
      .cls-1 {
        fill: #a98058;
      }
    </style>
  </defs>
  <path class="cls-1" d="M133.2,527c-3.5-5.5-9.4-.6-13-3.5-7.5-5.9-10-47.9-12.5-59.4s-7.9-22.2-9.5-33.9c5.6.6,4.2,7.4,5.5,11,9,25.4,8.3,45,15,68.9s2.4,11.9,8.5,10l1.5-5c2.6,1.7,2.7,4.1,2.5,7h4s0-5,0-5c6.8,8.4,10,6.2,8.9-4.4-1.7-16.3-12.1-26.5-6-46.2.5-1.6-.8-2.8,2.1-2.3v25.5c0,3.4,6.9,13.7,7.8,18.2s2.1,15.4-3,17.5l-9.7,1.8h-2Z"/>
  <path class="cls-1" d="M377.2,31.9v12l-4,4c-1.1-8.6,1.2-16.4-4-24.4,4.6-.9,5.4,6.3,8,8.5Z"/>
  <path class="cls-1" d="M287.2,27.9c-2.9-.4-5.6,1.1-8.5,1-4,0-9.1-3-13-3s-5.6,1.8-7,1.6-1.8-2.5-5-2.7c-8.5-.8-23.5,3.6-31.2,7.4s-5,2.5-7.7,3.8c-9.7,4.9-24.8,29-28.4,39.5s-6.5,27.2-6.1,29.5,2.1,2.9,2.6,4.5c1.7,5.5,2.3,25.6.8,31.2s-10.7,15.1-18.5,15.9c-.8-3.9,4.1-4.1,7-6.5,12.5-10.1,7.9-14.8,7.9-28s1.5-5.3,1.1-7.9-2.6-2.6-3.1-7c-2.8-27.7,11.1-61.3,34.6-76.4s5.5-2.7,8.3-4.2,1.3-2.9,3.3-4.2c2.9-1.8,12.9-4.3,16.4-4.5,12.1-.9,29.2.8,40.5,5.5s5,2.1,6,4.5Z"/>
  <path class="cls-1" d="M250.2,127.7c.7.6,16.3-2.6,18.3-3.2,6.7-2,15.2-7.7,22.3-8.7s2.3-.1,3.4,0c.7,6-5.7,8.6-10.2,10.3-12.8,4.8-28.8,7.4-42,8.9-7.2.8-24.9,14.6-27.3,21.8s0,9-4.5,11c0-7.7.2-15.2,5-21.4,2.1-2.8,12.6-11.7,15.6-13.3,7.4-3.9,17.3-.5,12.4-12.7-1.1-2.8-3.7-3.9-5.1-6.4,6.5-.9,13.3,8.1,12,14Z"/>
  <path class="cls-1" d="M190.2,444.6c.4-1.4,2.7-1.8,4-1.5.9,4,1.3,7.1.7,11.2-1.4,11-8.1,15.3-11.5,24.4s-7.1,21.9,2.3,24.2l3-5,1.5,5c4.8-.1,6.6-4.9,6-9,6.6,1.1,1.4,4.7,2,9,10.8,1.6,8.6-11,11.8-18.7,5.2-12.3,10-15.5,14.4-30.5s4-6.2,2.8-10.7c2.5-.3,1.6,0,2.1,1.4,3.8,10-12.3,32.4-15.9,42.2-3.1,8.6-1.5,19.3-13.2,20.8s-4-1.4-6.5-1.7c-4.2-.4-6.8,1.9-11.1.1-11.9-4.9-4.1-30.8,1.1-38.9s6.4-6.7,6.4-7.5c0-3.5-.7-12.5,0-15Z"/>
  <path class="cls-1" d="M36.9,116.1c8,4.4,22,13.5,31.8,13.6s3.2-1,4.9-.9c4.9.2,19.8,5.3,24.3,7.7s6.7,6.9,10.3,11.6,7.4,6.9,8,12.5c-1.9,2.1-13.3-13.8-14.5-15-5.3-5.4-13.2-7.7-20.4-9.6s-15.7-2.2-22.3-3.7-17-11-25.7-12.3l-4.1-5.4c3-.3,5,0,7.6,1.4Z"/>
  <path class="cls-1" d="M59.2,296.4c-5.1.9-7.3-4.2-9.5-8-6.5-11.1-13-30.4-11.2-43.2s3.7-8.9,5.3-13.7c2.9-8.9,3.6-18.7,3.5-28,4.1,2.4,3.3,10.2,3,14.5-1.1,13.2-9.4,23.1-7.9,36.8s7,21.9,9.4,27.5,6.2,8.7,7.5,14Z"/>
  <path class="cls-1" d="M179.2,267.5c-3.8,9.7-15.6,5.9-21-.5s-1.9-4.1-3.5-5.5c-3.8-3.4-9-1.7-9.2-10.6-.3-13,28-6.8,25.3,1.7s-10.6,9.7-10.6,10.5c2.9,3.1,7.6,8.3,12.2,7.3s3.9-3.5,6.7-2.8ZM167.2,250.5c-3.9.9-5-2.8-8.5-3.1s-9.4,1.4-9.6,2.7c-1.5,9.3,17.1,10.8,18.1.4Z"/>
  <path class="cls-1" d="M259.2,364.3c3.8-.2,3.1,4,3.1,6.5,0,10.6-4.8,30.7-10.2,39.7s-7.9,6.6-9.4,12.6c-1.5,5.8,2.7,11.1-2,16-4.2-3.8-2.1-11.9-.9-16.8,2.3-8.6,8.4-14.2,12.1-21.9,5-10.6,7.3-24.5,7.3-36.1Z"/>
  <path class="cls-1" d="M318.2,242.5c-4.2,3.6-12.9-18.3-13.7-20.7-5.1-13.9-5.9-28.6-11.8-43.2s-6.4-7.3-3-10c12.1,14,12.5,34.5,18.5,51.4,2.8,8,7.5,14.5,10,22.4Z"/>
  <path class="cls-1" d="M286.2,213.6c9.9,7.9,5.9,21.6,7.1,32.3,1.1,9.7,7,22.3,12.9,30s5.7,4.9,6.5,6.5c1.4,2.7-1.7,4.1-4.5,1.5-12.5-11.5-17.7-29.4-19-45.9-.4-5,.7-11.1,0-16-.5-3-3.3-5.2-2.9-8.5Z"/>
  <path class="cls-1" d="M40.2,152.7c1.7,1.9-7.3,9.9-7.7,12.6,1.4,18.3,3.5,38.3-6.1,55s-6.1,8.5-7.2,7.3c-.4-5.2,4.6-8.5,6.5-13,8.3-19.3,0-32.7,3.9-49,.5-2.2,8.5-15.2,10.6-12.9Z"/>
  <path class="cls-1" d="M194.2,169.7c-8.4-1.5-16.8-6.6-25.5-7s-19.3.6-22.8,1.3-13.3,9.8-15.7,3.3c2.5-4,6.5-2.9,10-4s14-5.6,18.5-5.5,4.3,1.6,6.2,1.8,4.3-1,6.8-.9c4.1.1,16.9,5.3,20.4,7.7s2.4,1.7,2.1,3.4Z"/>
  <path class="cls-1" d="M266.2,276c0-1.1-1.8-3.5-1-5.5,1.9.4,2,2.5,2.5,4,4,11.5,1.5,22.4,7.6,35.3,4.1,8.6,11,16.9,16.9,24.1,1.8,2.3,4.6,3.9,6,6.5-4.8.3-10.4-6.4-13.5-10-7.2-8.2-18.5-27.6-18.5-38.4s.3-10.9,0-16Z"/>
  <path class="cls-1" d="M56.2,257.5c1.3,3.9.5,8.3,1.5,12,2.2,8.5,15.8,19.4,16.5,30.5s-4.4,14.7-5.4,15.4-3.7,1.6-4.6.4c4-3.9,5.8-12.6,4.9-17.9s-6.7-11.2-8.7-15.3c-2.5-5.1-8.3-18.8-6.4-23.8s-.3-1.7,2.1-1.4Z"/>
  <path class="cls-1" d="M23.2,133.7c-1.4.1-3.1-.6-4.1.6-2,2.5-2.3,12-3.4,16.3-1.9,7.6-6.9,17.8-15.5,19-1.3-4.8,2.8-4.9,4.4-7s2.4-4.6,3.3-6.7c2.4-5.8,3.7-17.5,5.8-21.2s7.9-4.8,9.4-1.1Z"/>
  <path class="cls-1" d="M318.2,187.6c-21.9-2.8-17.3-35.9-25.9-46.2-1.1-1.3-3.7-.5-4.1-2.7,13.8.4,11.7,19.3,15.8,29.6,3.5,8.7,9.5,11.8,14.2,19.3Z"/>
  <path class="cls-1" d="M309.2,55.9l-.6,4.1c-5.9,4.3-24.8.3-31.4-2.6s-3.4-1.3-3-3.5c2-2.7,29.8,2.9,35,2Z"/>
  <path class="cls-1" d="M240.2,361.3c-1.7,1.9-5.5-6.8-5.9-7.6-6.9-15.5-1.7-22.1-3.2-36.8-.5-5.2-3.2-8.6-4-13.5,6.9,4.8,8.2,13.7,8,21.5s-2.3,11.5-1.9,15.9,8.3,19,7,20.6Z"/>
  <path class="cls-1" d="M138,237.3c-3.4,3.6-13.6,2.6-13.4-3,.6-17.2,20.7-4.7,13.4,3Z"/>
  <path class="cls-1" d="M185,227.7c7.8-1.6,14.1,10,7,13-9.5,4.1-17-11-7-13Z"/>
  <path class="cls-1" d="M250.9,122.1c-6.6-4.9-13.2-13-21-10.1,7,5.5,17.1,10,17.8,19.6,4.3.4,1.8-7.1,3.1-9.5Z"/>
  <path class="cls-1" d="M283.1,84.6c-8.1-1.5-18.5-.5-21.8-9.7,8.8,1.5,19,6.5,26.5-1,3.3,3.3-3.8,7.6-4.7,10.7Z"/>
  <path class="cls-1" d="M252.2,96.8c3.7.5,5.1,4.6,8.3,6.2s9.4,3,13.5,4.5,7.5-.6,6.2,3.7-2,1.2-3.2,1.2c-2.3,0-8.2.5-9.8-.3s-9.5-7.2-11-8.9-4.8-5.6-4-6.5Z"/>
  <path class="cls-1" d="M87,384.5c1.1,1.4.8,5.6,1.8,7.7s3.2,2.8,4.3,4.7c3.6,6.2,5.4,11.1,5.7,18.3s-2.2,6-3.3,1.2-.1-6.8-2.1-9.9l-11.2-21.8c.9-1.9,3.7-1.5,4.7-.2Z"/>
  <path class="cls-1" d="M354.2,49.9c-.9-3.9,1.1-8,1.1-11.5s-.6-11.5-1.1-14-4.7-3.1-3-4.5,5.5,1.6,6.5,3,2.4,6.2,2.5,8.5c.3,5.1-.1,17.2-6,18.4Z"/>
  <path class="cls-1" d="M170.2,426.2c-.3-2.1-.1-1.6,1.3-2.2,2.5-1.1,5.8-1.2,8.4-2.6,7.7-4,6.9-14.2,9.8-21.2,4.1,5.8-.4,21.8-6.5,24.5-2.2,1-11.4,3.2-13,1.5Z"/>
  <path class="cls-1" d="M277.2,282.4c3.8-8.2,4.6-18.4,2.8-27.2s-4.2-7.3-3.8-11.7c8.3,6.6,11.4,29.6,4.5,37s-1.8,2.3-3.5,2Z"/>
  <path class="cls-1" d="M174.2,10c-10-3.4-.3,19.8-11.1,16.5-2.2-5.1-1.1-10.7,1.8-15.3s8.7-9.2,9.2-1.3Z"/>
  <path class="cls-1" d="M196.6,275.8c-3.7,4.9-3,6.4-8.4,11.2s-.8,2.2-1.1,2.4-1.9-1-3.1-.7-2.7,2.3-5.3,2.8c-3.8.6-8.5-.3-12.4,0,1.7-4.4,6.7-2.5,10.2-3.2,12.7-2.6,13.2-8.3,21.3-16.7l1.4,2.5c0,.6-2.1,1.2-2.6,1.8Z"/>
  <path class="cls-1" d="M103.2,313.4c-2.9,3.9-2.5,10.3-5.6,13.9s-14.3,9.3-15.4,8.1c-.6-4.1,5.6-5.6,8.5-8s3.9-3.4,5-5c2.8-4.2,2-10.4,7.6-8.9Z"/>
  <path class="cls-1" d="M100.2,343.3c.7,7.4-2.2,13.9-8.1,18.4s-10.4,7.3-10.9,2.1c9-5.1,16.1-8.6,16-20.5h3Z"/>
  <path class="cls-1" d="M158.2,292.4c.7,2.3-2.5,3-4,3.5-7.3,2.4-11.7,2-18.3-1.7s-7.6-5.3-7.7-6.3c-.2-4,9.5,3.3,10.3,3.7,6.3,2.9,13,2.1,19.7.8Z"/>
  <path class="cls-1" d="M157.2,0c-1.8,2.5-2,5.5-3.1,8.2s-1.8.8-1.9,1.5c-.7,3.5,2.8,8.2-1.5,12.3-9.4-5.4-1.7-19.6,6.5-21.9Z"/>
  <path class="cls-1" d="M277.2,335.3c-3.2,3-12.7-14.2-13.9-16.6-2.1-4.2-3.2-9.1-5.1-13.3,2.2-.5,2.2,1.1,3,2.5,2.9,5,5.7,12.3,8.5,16.4s7.5,5.7,7.4,11Z"/>
  <path class="cls-1" d="M112.2,360.3c1.7,6.2-2.1,14-1.9,19.4s2.9,7.6,1.9,11.6c-7-6.2-5.1-16.7-3.3-24.8s.7-7,3.3-6.1Z"/>
  <path class="cls-1" d="M226,359.5c1.6,1.6,1.9,8.7,3,11.5s8.4,11.1,7.2,12.3c-11.5-2.2-9.2-16.9-15-24.5.7-1.2,4.2.1,4.8.7Z"/>
  <path class="cls-1" d="M158.2,268.5c0,6-7.2,5.7-11.5,4.9s-14.3-6.3-11.5-8.9c3.9-.8,5.4,2.4,8.7,3.8,5.4,2.2,8.9,1.6,14.3.2Z"/>
  <path class="cls-1" d="M155.2,436.2c-1,.9-3.1-.7-4-1.4-4.6-3.4-8.7-18.6-7.9-24.5,1.6.7,3.2,4.2,3.8,5.7,1.5,4.1,1.6,9,3.3,12.7s6.6,6,4.9,7.6Z"/>
  <path class="cls-1" d="M123.2,394.2c1.7,10.1,5.1,18.6,11,26.9-8-2-12.3-15.2-13-22.5s-1-5.3,2-4.5Z"/>
  <path class="cls-1" d="M211.1,374.4c2,1.2,3.3,26-6.9,22.9,0-3.4,4.5-4.3,5-7.5s0-8.2,0-9.9-2.8-8.3,1.9-5.5Z"/>
  <path class="cls-1" d="M286.2,335.4c.3,3.4-.7,11.4-4.5,12s-4.8-.4-4.5-3l4.8-1.2c.3-2.9,0-7.7,4.1-7.8Z"/>
  <path class="cls-1" d="M262.2,342.3l2.7,3.8c2.7-.2,3.8-1,3.4-3.8h1c.3,4.5,4.5,3.1,7,5.5-3.5,4.3-7-1.5-7.4-1.5-3.7.4-9.1,6-8.5-3.5l2-.5Z"/>
</svg>