<?xml version="1.0" encoding="UTF-8"?>
<svg id="_レイヤー_1" data-name="レイヤー 1" xmlns="http://www.w3.org/2000/svg" viewBox="0 0 230.8 156.7">
  <defs>
    <style>
      .cls-1 {
        fill: #a98058;
      }
    </style>
  </defs>
  <path class="cls-1" d="M230.8,31.9v12l-4,4c-1.1-8.6,1.2-16.4-4-24.4,4.6-.9,5.4,6.3,8,8.5Z"/>
  <path class="cls-1" d="M140.8,27.9c-2.9-.4-5.6,1.1-8.5,1-4,0-9.1-3-13-3s-5.6,1.8-7,1.6-1.8-2.5-5-2.7c-8.5-.8-23.5,3.6-31.2,7.4-2.3,1.1-5,2.5-7.7,3.8-9.7,4.9-24.8,29-28.4,39.5-1.2,3.5-6.5,27.2-6.1,29.5s2.1,2.9,2.6,4.5c1.7,5.5,2.3,25.6.8,31.2s-10.7,15.1-18.5,15.9c-.8-3.9,4.1-4.1,7-6.5,12.5-10.1,7.9-14.8,7.9-28s1.5-5.3,1.1-7.9-2.6-2.6-3.1-7c-2.8-27.7,11.1-61.3,34.6-76.4s5.5-2.7,8.3-4.2,1.3-2.9,3.3-4.2c2.9-1.8,12.9-4.3,16.4-4.5,12.1-.9,29.2.8,40.5,5.5s5,2.1,6,4.5Z"/>
  <path class="cls-1" d="M162.8,55.9l-.6,4.1c-5.9,4.3-24.8.3-31.4-2.6-1.6-.7-3.4-1.3-3-3.5,2-2.7,29.8,2.9,35,2Z"/>
  <path class="cls-1" d="M104.4,122.1c-6.6-4.9-13.2-13-21-10.1,7,5.5,17.1,10,17.8,19.6,4.3.4,1.8-7.1,3.1-9.5Z"/>
  <path class="cls-1" d="M136.6,84.6c-8.1-1.5-18.5-.5-21.8-9.7,8.8,1.5,19,6.5,26.5-1,3.3,3.3-3.8,7.6-4.7,10.7Z"/>
  <path class="cls-1" d="M105.8,96.8c3.7.5,5.1,4.6,8.3,6.2s9.4,3,13.5,4.5,7.5-.6,6.2,3.7-2,1.2-3.2,1.2c-2.3,0-8.2.5-9.8-.3s-9.5-7.2-11-8.9-4.8-5.6-4-6.5Z"/>
  <path class="cls-1" d="M207.8,49.9c-.9-3.9,1.1-8,1.1-11.5s-.6-11.5-1.1-14-4.7-3.1-3-4.5,5.5,1.6,6.5,3,2.4,6.2,2.5,8.5c.3,5.1-.1,17.2-6,18.4Z"/>
  <path class="cls-1" d="M27.8,10c-10-3.4-.3,19.8-11.1,16.5-2.2-5.1-1.1-10.7,1.8-15.3s8.7-9.2,9.2-1.3Z"/>
  <path class="cls-1" d="M10.8,0c-1.8,2.5-2,5.5-3.1,8.2s-1.8.8-1.9,1.5c-.7,3.5,2.8,8.2-1.5,12.3C-5.1,16.5,2.6,2.4,10.8,0Z"/>
</svg>